<?xml version="1.0" standalone="no"?>
<!DOCTYPE svg PUBLIC "-//W3C//DTD SVG 20010904//EN"
 "http://www.w3.org/TR/2001/REC-SVG-20010904/DTD/svg10.dtd">
<svg version="1.0" xmlns="http://www.w3.org/2000/svg"
 width="1000.000000pt" height="1000.000000pt" viewBox="0 0 1000.000000 1000.000000"
 preserveAspectRatio="xMidYMid meet">
<metadata>
Created by potrace 1.16, written by Peter Selinger 2001-2019
</metadata>
<g transform="translate(0.000000,1000.000000) scale(0.100000,-0.100000)"
fill="#000000" stroke="none">
<path d="M4700 8215 c-171 -29 -354 -87 -508 -161 -136 -66 -315 -181 -306
-196 4 -6 2 -8 -4 -5 -27 18 -269 -215 -381 -366 -299 -403 -417 -788 -391
-1269 21 -390 119 -675 338 -993 270 -390 646 -653 1079 -755 60 -14 51 -18
187 97 334 283 482 660 436 1108 -25 245 -115 505 -323 931 -24 49 -50 107
-57 129 -7 22 -15 45 -19 50 -3 6 -6 15 -7 20 -1 6 -11 46 -23 90 -47 183 -78
477 -68 663 3 56 2 102 -2 102 -3 0 -52 -30 -107 -68 -96 -63 -101 -68 -92
-92 24 -63 72 -235 93 -335 66 -308 57 -601 -26 -855 -79 -241 -254 -481 -492
-673 -111 -90 -255 -187 -278 -187 -9 0 -36 30 -61 68 -143 213 -210 441 -210
717 0 165 13 268 52 425 55 223 132 403 241 570 213 325 482 524 831 612 l91
23 85 175 c46 96 86 178 89 183 6 11 -81 7 -167 -8z m-151 -209 c-2 -2 -42
-14 -89 -26 -485 -123 -917 -650 -1074 -1310 -35 -151 -41 -208 -41 -430 0
-248 11 -329 67 -489 75 -213 216 -406 372 -510 21 -14 33 -27 27 -29 -19 -6
-163 101 -242 180 -125 126 -193 233 -265 418 -160 417 -79 1028 196 1475 23
39 43 76 43 82 0 7 2 11 5 9 2 -3 31 31 63 74 216 292 509 486 824 545 72 13
121 18 114 11z m-38 -2582 c77 -22 161 -72 257 -152 73 -62 115 -87 176 -106
18 -6 18 -7 0 -27 -19 -21 -135 -113 -144 -115 -3 0 -39 -17 -80 -37 -103 -50
-177 -67 -290 -67 -144 0 -296 48 -414 130 -26 17 -51 28 -58 24 -6 -4 -8 -3
-4 4 3 6 -7 20 -24 32 -38 27 -31 40 23 40 74 0 366 34 361 42 -3 4 -98 8
-212 8 l-207 1 62 59 c97 91 208 146 351 170 77 13 145 11 203 -6z"/>
<path d="M2428 3475 c-173 -44 -288 -159 -335 -336 -10 -41 -16 -102 -16 -169
0 -165 38 -278 127 -376 170 -190 551 -191 721 -2 87 96 125 213 125 378 0
260 -108 430 -317 496 -70 22 -235 27 -305 9z m257 -173 c115 -59 175 -198
162 -371 -11 -139 -62 -234 -155 -289 -41 -23 -58 -27 -127 -27 -95 0 -142 21
-201 88 -62 70 -79 130 -79 272 1 101 5 129 24 179 29 72 91 137 152 159 60
23 171 17 224 -11z"/>
<path d="M3542 3475 c-171 -37 -291 -156 -339 -336 -20 -77 -22 -241 -4 -319
21 -88 77 -194 131 -244 186 -174 541 -166 705 16 87 96 125 213 125 378 0
165 -38 282 -125 378 -105 117 -304 168 -493 127z m231 -165 c127 -48 198
-193 184 -379 -16 -207 -134 -331 -302 -318 -76 5 -131 33 -181 90 -62 70 -79
130 -79 272 1 101 5 129 24 179 58 146 206 211 354 156z"/>
<path d="M6039 3472 c-208 -55 -332 -222 -346 -467 -9 -180 41 -329 148 -436
66 -66 133 -96 252 -112 162 -22 314 25 402 126 109 125 112 287 5 287 -48 0
-65 -14 -95 -82 -38 -85 -62 -115 -115 -146 -39 -23 -56 -27 -125 -27 -88 0
-137 19 -187 72 -82 87 -107 301 -53 464 23 68 101 149 161 167 129 38 230 -8
310 -139 39 -64 58 -79 101 -79 48 1 83 42 83 97 0 46 -47 129 -101 177 -116
104 -278 140 -440 98z"/>
<path d="M6831 3476 c-50 -28 -50 -30 -51 -503 0 -322 3 -449 12 -468 13 -29
55 -55 88 -55 34 0 79 31 90 63 14 42 14 874 -1 916 -18 53 -86 76 -138 47z"/>
<path d="M8050 3477 c-41 -20 -56 -58 -42 -103 6 -22 74 -137 151 -256 l139
-218 4 -188 c3 -204 10 -230 64 -254 35 -16 92 1 118 35 19 26 21 44 24 219
l4 191 149 230 c150 231 163 259 143 312 -17 44 -113 56 -146 17 -9 -9 -68
-102 -133 -205 l-117 -188 -95 153 c-52 84 -108 174 -126 200 -44 65 -84 82
-137 55z"/>
<path d="M1318 3455 c-15 -9 -32 -24 -38 -35 -6 -12 -10 -179 -10 -464 l0
-445 23 -26 c29 -34 87 -44 123 -20 46 30 54 68 54 265 l0 180 181 0 c215 0
239 7 239 75 0 68 -24 75 -239 75 l-181 0 0 129 0 130 224 3 c204 3 226 5 245
22 28 25 28 77 0 102 -20 18 -42 19 -308 21 -239 2 -290 0 -313 -12z"/>
<path d="M4405 3461 c-11 -5 -29 -19 -40 -31 -19 -21 -20 -38 -23 -436 -3
-466 -1 -487 53 -510 41 -17 363 -20 458 -4 83 13 159 51 212 106 90 93 128
205 128 384 0 180 -39 294 -133 387 -93 93 -173 113 -445 112 -104 0 -199 -4
-210 -8z m451 -182 c99 -49 140 -153 132 -339 -4 -87 -9 -115 -32 -167 -53
-118 -104 -143 -292 -143 l-124 0 0 341 0 342 134 -5 c115 -4 140 -8 182 -29z"/>
<path d="M7160 3457 c-51 -26 -61 -95 -18 -134 17 -15 41 -19 159 -21 l139 -4
0 -383 c0 -413 1 -425 51 -451 42 -21 75 -17 111 15 l33 29 3 395 3 396 140 3
c134 3 142 4 160 27 34 42 24 103 -22 126 -38 20 -720 22 -759 2z"/>
<path d="M1270 1985 l0 -205 80 0 c101 0 153 19 174 65 20 41 20 56 2 99 -18
43 -74 66 -161 66 l-65 0 0 75 0 75 105 0 c87 0 105 3 105 15 0 13 -20 15
-120 15 l-120 0 0 -205z m205 -28 c21 -17 27 -32 27 -62 0 -30 -6 -45 -27 -62
-22 -20 -37 -23 -101 -23 l-74 0 0 85 0 85 74 0 c64 0 79 -3 101 -23z"/>
<path d="M4652 2070 c-42 -26 -62 -73 -62 -145 0 -114 71 -176 165 -145 48 16
97 90 60 90 -8 0 -15 -5 -15 -10 0 -6 -11 -22 -25 -35 -32 -33 -84 -33 -121
-1 -24 20 -28 33 -32 88 -6 98 26 148 95 148 37 0 69 -23 77 -55 4 -14 13 -25
21 -25 36 0 -4 77 -50 96 -47 19 -74 18 -113 -6z"/>
<path d="M6013 2076 c-17 -8 -39 -28 -47 -45 -20 -37 -20 -41 -1 -41 8 0 15 5
15 10 0 6 11 22 25 35 26 27 72 33 107 14 18 -10 48 -65 48 -89 0 -6 -29 -10
-70 -10 -56 0 -70 -3 -70 -15 0 -12 14 -15 70 -15 75 0 79 -4 61 -53 -31 -82
-145 -90 -165 -12 -4 14 -14 25 -22 25 -24 0 -10 -49 22 -77 34 -31 68 -38
114 -24 55 16 83 60 88 137 5 69 -15 125 -53 150 -34 22 -86 26 -122 10z"/>
<path d="M7833 2075 c-50 -21 -73 -68 -73 -146 0 -52 5 -73 23 -100 48 -72
160 -75 209 -6 17 23 23 49 26 97 4 79 -18 126 -69 152 -41 21 -73 22 -116 3z
m119 -44 c31 -28 33 -33 33 -100 0 -64 -3 -72 -29 -100 -23 -24 -38 -31 -65
-31 -65 1 -101 48 -101 132 0 50 4 62 31 93 41 46 84 48 131 6z"/>
<path d="M8374 2080 c-12 -5 -25 -13 -29 -19 -9 -16 -25 -13 -25 4 0 8 -4 15
-10 15 -6 0 -10 -73 -10 -200 0 -110 0 -203 0 -207 0 -5 5 -8 11 -8 7 0 11 24
11 65 0 77 4 87 28 65 49 -45 140 -22 167 42 19 46 18 141 -1 186 -22 55 -86
80 -142 57z m98 -50 c29 -29 30 -33 26 -105 -3 -61 -7 -78 -27 -99 -26 -28
-64 -33 -104 -15 -33 15 -42 41 -46 121 -3 64 -1 70 27 98 41 41 83 40 124 0z"/>
<path d="M1800 2071 c0 -4 25 -74 55 -155 42 -112 55 -159 55 -201 0 -42 3
-55 15 -55 12 0 15 14 15 69 0 60 7 89 54 210 44 118 51 141 37 141 -13 0 -29
-32 -62 -125 -24 -68 -47 -121 -51 -117 -3 4 -25 60 -49 125 -25 70 -48 117
-56 117 -7 0 -13 -4 -13 -9z"/>
<path d="M2330 2006 l51 -74 -34 -49 c-66 -93 -71 -103 -53 -103 8 0 34 27 58
60 23 33 44 60 47 60 4 0 24 -27 46 -60 24 -36 47 -60 58 -60 15 0 8 15 -32
73 -28 40 -51 77 -51 81 0 4 20 36 45 70 49 70 52 76 30 76 -8 0 -33 -28 -56
-61 l-41 -61 -40 61 c-27 40 -47 61 -60 61 -16 0 -11 -12 32 -74z"/>
<path d="M3150 2006 l51 -74 -34 -49 c-66 -93 -71 -103 -53 -103 8 0 34 27 58
60 23 33 44 60 47 60 4 0 24 -27 46 -60 24 -36 47 -60 58 -60 15 0 8 15 -32
73 -28 40 -51 77 -51 81 0 5 23 39 50 77 43 58 47 69 30 69 -12 0 -33 -21 -61
-61 l-41 -61 -40 61 c-27 40 -47 61 -60 61 -16 0 -11 -12 32 -74z"/>
<path d="M3580 2071 c0 -5 23 -69 51 -142 43 -113 51 -145 51 -201 0 -60 3
-68 19 -68 17 0 19 8 19 69 0 59 7 89 50 200 54 142 56 151 37 151 -8 0 -31
-51 -58 -125 -24 -68 -47 -121 -51 -117 -3 4 -25 60 -49 125 -25 70 -48 117
-56 117 -7 0 -13 -4 -13 -9z"/>
<path d="M4090 1930 c0 -127 2 -150 15 -150 12 0 15 14 15 70 l0 70 80 0 80 0
0 -70 c0 -56 3 -70 15 -70 13 0 15 23 15 150 0 127 -2 150 -15 150 -12 0 -15
-14 -15 -65 l0 -65 -80 0 -80 0 0 65 c0 51 -3 65 -15 65 -13 0 -15 -23 -15
-150z"/>
<path d="M5450 1930 c0 -127 2 -150 15 -150 12 0 15 14 15 70 l0 70 80 0 80 0
0 -70 c0 -56 3 -70 15 -70 13 0 15 23 15 150 0 127 -2 150 -15 150 -12 0 -15
-14 -15 -65 l0 -65 -80 0 -80 0 0 65 c0 51 -3 65 -15 65 -13 0 -15 -23 -15
-150z"/>
<path d="M7306 2034 c-3 -26 -6 -61 -6 -78 0 -50 -20 -107 -46 -133 -19 -19
-24 -34 -24 -78 0 -30 5 -55 10 -55 11 0 11 0 15 45 1 17 3 33 4 38 0 4 51 7
111 7 l110 0 0 -45 c0 -36 3 -45 18 -45 14 0 17 10 17 60 0 50 -3 60 -17 60
-16 0 -18 13 -18 135 l0 135 -84 0 -83 0 -7 -46z m144 -104 l0 -120 -80 0
c-44 0 -80 2 -80 3 0 2 7 19 16 37 13 26 27 107 33 193 1 4 26 7 56 7 l55 0 0
-120z"/>
</g>
</svg>
